<svg width="13" height="21" viewBox="0 0 13 21" fill="none" xmlns="http://www.w3.org/2000/svg">
<path d="M12.2212 10.6084C12.2212 10.2153 12.0752 9.87842 11.7607 9.58643L3.02344 1.02881C2.77637 0.781737 2.46192 0.646972 2.09131 0.646972C1.3501 0.646972 0.754885 1.23096 0.754885 1.9834C0.754885 2.354 0.912111 2.67969 1.15918 2.93799L9.03174 10.6084L1.15918 18.2788C0.91211 18.5371 0.754883 18.874 0.754883 19.2334C0.754883 19.9858 1.3501 20.5698 2.09131 20.5698C2.46191 20.5698 2.77637 20.4351 3.02344 20.188L11.7607 11.6416C12.0752 11.3384 12.2212 11.0015 12.2212 10.6084Z" fill="white" fill-opacity="0.45"/>
</svg>
